<?xml version="1.0" encoding="UTF-8"?><svg xmlns="http://www.w3.org/2000/svg" xmlns:xlink="http://www.w3.org/1999/xlink" stroke-dasharray="none" shape-rendering="auto" font-family="'Dialog'" width="3200" text-rendering="auto" fill-opacity="1" contentScriptType="text/ecmascript" color-interpolation="auto" color-rendering="auto" preserveAspectRatio="xMidYMid meet" font-size="12px" viewBox="0 0 3200 1220" fill="black" stroke="black" image-rendering="auto" stroke-miterlimit="10" zoomAndPan="magnify" version="1.0" stroke-linecap="square" stroke-linejoin="miter" contentStyleType="text/css" font-style="normal" height="1220" stroke-width="1" stroke-dashoffset="0" font-weight="normal" stroke-opacity="1">
    <!--Generated by the Batik Graphics2D SVG Generator-->
    <defs id="genericDefs"/>
    <g>
        <defs id="defs1">
            <linearGradient x1="1590" x2="1590" y1="10" gradientUnits="userSpaceOnUse" y2="164" xlink:type="simple" xlink:actuate="onLoad" id="linearGradient1" xlink:show="other" spreadMethod="pad">
                <stop stop-opacity="1" stop-color="white" offset="0%"/>
                <stop stop-opacity="1" stop-color="rgb(195,209,213)" offset="100%"/>
            </linearGradient>
            <linearGradient x1="1330" x2="1330" y1="250" gradientUnits="userSpaceOnUse" y2="350" xlink:type="simple" xlink:actuate="onLoad" id="linearGradient2" xlink:show="other" spreadMethod="pad">
                <stop stop-opacity="1" stop-color="white" offset="0%"/>
                <stop stop-opacity="1" stop-color="rgb(195,209,213)" offset="100%"/>
            </linearGradient>
            <linearGradient x1="2290" x2="2290" y1="310" gradientUnits="userSpaceOnUse" y2="430" xlink:type="simple" xlink:actuate="onLoad" id="linearGradient3" xlink:show="other" spreadMethod="pad">
                <stop stop-opacity="1" stop-color="white" offset="0%"/>
                <stop stop-opacity="1" stop-color="rgb(195,209,213)" offset="100%"/>
            </linearGradient>
            <linearGradient x1="2210" x2="2210" y1="610" gradientUnits="userSpaceOnUse" y2="710" xlink:type="simple" xlink:actuate="onLoad" id="linearGradient4" xlink:show="other" spreadMethod="pad">
                <stop stop-opacity="1" stop-color="white" offset="0%"/>
                <stop stop-opacity="1" stop-color="rgb(195,209,213)" offset="100%"/>
            </linearGradient>
            <linearGradient x1="2430" x2="2430" y1="610" gradientUnits="userSpaceOnUse" y2="710" xlink:type="simple" xlink:actuate="onLoad" id="linearGradient5" xlink:show="other" spreadMethod="pad">
                <stop stop-opacity="1" stop-color="white" offset="0%"/>
                <stop stop-opacity="1" stop-color="rgb(195,209,213)" offset="100%"/>
            </linearGradient>
            <linearGradient x1="890" x2="890" y1="550" gradientUnits="userSpaceOnUse" y2="690" xlink:type="simple" xlink:actuate="onLoad" id="linearGradient6" xlink:show="other" spreadMethod="pad">
                <stop stop-opacity="1" stop-color="white" offset="0%"/>
                <stop stop-opacity="1" stop-color="rgb(195,209,213)" offset="100%"/>
            </linearGradient>
            <linearGradient x1="730" x2="730" y1="730" gradientUnits="userSpaceOnUse" y2="830" xlink:type="simple" xlink:actuate="onLoad" id="linearGradient7" xlink:show="other" spreadMethod="pad">
                <stop stop-opacity="1" stop-color="white" offset="0%"/>
                <stop stop-opacity="1" stop-color="rgb(195,209,213)" offset="100%"/>
            </linearGradient>
            <linearGradient x1="1530" x2="1530" y1="510" gradientUnits="userSpaceOnUse" y2="610" xlink:type="simple" xlink:actuate="onLoad" id="linearGradient8" xlink:show="other" spreadMethod="pad">
                <stop stop-opacity="1" stop-color="white" offset="0%"/>
                <stop stop-opacity="1" stop-color="rgb(195,209,213)" offset="100%"/>
            </linearGradient>
            <linearGradient x1="890" x2="890" y1="770" gradientUnits="userSpaceOnUse" y2="870" xlink:type="simple" xlink:actuate="onLoad" id="linearGradient9" xlink:show="other" spreadMethod="pad">
                <stop stop-opacity="1" stop-color="white" offset="0%"/>
                <stop stop-opacity="1" stop-color="rgb(195,209,213)" offset="100%"/>
            </linearGradient>
            <linearGradient x1="1050" x2="1050" y1="910" gradientUnits="userSpaceOnUse" y2="1010" xlink:type="simple" xlink:actuate="onLoad" id="linearGradient10" xlink:show="other" spreadMethod="pad">
                <stop stop-opacity="1" stop-color="white" offset="0%"/>
                <stop stop-opacity="1" stop-color="rgb(195,209,213)" offset="100%"/>
            </linearGradient>
            <linearGradient x1="1170" x2="1170" y1="890" gradientUnits="userSpaceOnUse" y2="990" xlink:type="simple" xlink:actuate="onLoad" id="linearGradient11" xlink:show="other" spreadMethod="pad">
                <stop stop-opacity="1" stop-color="white" offset="0%"/>
                <stop stop-opacity="1" stop-color="rgb(195,209,213)" offset="100%"/>
            </linearGradient>
            <linearGradient x1="1870" x2="1870" y1="610" gradientUnits="userSpaceOnUse" y2="710" xlink:type="simple" xlink:actuate="onLoad" id="linearGradient12" xlink:show="other" spreadMethod="pad">
                <stop stop-opacity="1" stop-color="white" offset="0%"/>
                <stop stop-opacity="1" stop-color="rgb(195,209,213)" offset="100%"/>
            </linearGradient>
            <linearGradient x1="1370" x2="1370" y1="870" gradientUnits="userSpaceOnUse" y2="970" xlink:type="simple" xlink:actuate="onLoad" id="linearGradient13" xlink:show="other" spreadMethod="pad">
                <stop stop-opacity="1" stop-color="white" offset="0%"/>
                <stop stop-opacity="1" stop-color="rgb(195,209,213)" offset="100%"/>
            </linearGradient>
            <linearGradient x1="1530" x2="1530" y1="870" gradientUnits="userSpaceOnUse" y2="970" xlink:type="simple" xlink:actuate="onLoad" id="linearGradient14" xlink:show="other" spreadMethod="pad">
                <stop stop-opacity="1" stop-color="white" offset="0%"/>
                <stop stop-opacity="1" stop-color="rgb(195,209,213)" offset="100%"/>
            </linearGradient>
            <linearGradient x1="1690" x2="1690" y1="870" gradientUnits="userSpaceOnUse" y2="970" xlink:type="simple" xlink:actuate="onLoad" id="linearGradient15" xlink:show="other" spreadMethod="pad">
                <stop stop-opacity="1" stop-color="white" offset="0%"/>
                <stop stop-opacity="1" stop-color="rgb(195,209,213)" offset="100%"/>
            </linearGradient>
            <linearGradient x1="2050" x2="2050" y1="590" gradientUnits="userSpaceOnUse" y2="690" xlink:type="simple" xlink:actuate="onLoad" id="linearGradient16" xlink:show="other" spreadMethod="pad">
                <stop stop-opacity="1" stop-color="white" offset="0%"/>
                <stop stop-opacity="1" stop-color="rgb(195,209,213)" offset="100%"/>
            </linearGradient>
            <linearGradient x1="330" x2="330" y1="550" gradientUnits="userSpaceOnUse" y2="650" xlink:type="simple" xlink:actuate="onLoad" id="linearGradient17" xlink:show="other" spreadMethod="pad">
                <stop stop-opacity="1" stop-color="white" offset="0%"/>
                <stop stop-opacity="1" stop-color="rgb(195,209,213)" offset="100%"/>
            </linearGradient>
            <linearGradient x1="150" x2="150" y1="730" gradientUnits="userSpaceOnUse" y2="830" xlink:type="simple" xlink:actuate="onLoad" id="linearGradient18" xlink:show="other" spreadMethod="pad">
                <stop stop-opacity="1" stop-color="white" offset="0%"/>
                <stop stop-opacity="1" stop-color="rgb(195,209,213)" offset="100%"/>
            </linearGradient>
            <linearGradient x1="130" x2="130" y1="310" gradientUnits="userSpaceOnUse" y2="410" xlink:type="simple" xlink:actuate="onLoad" id="linearGradient19" xlink:show="other" spreadMethod="pad">
                <stop stop-opacity="1" stop-color="white" offset="0%"/>
                <stop stop-opacity="1" stop-color="rgb(195,209,213)" offset="100%"/>
            </linearGradient>
            <linearGradient x1="850" x2="850" y1="970" gradientUnits="userSpaceOnUse" y2="1070" xlink:type="simple" xlink:actuate="onLoad" id="linearGradient20" xlink:show="other" spreadMethod="pad">
                <stop stop-opacity="1" stop-color="white" offset="0%"/>
                <stop stop-opacity="1" stop-color="rgb(195,209,213)" offset="100%"/>
            </linearGradient>
            <linearGradient x1="810" x2="810" y1="1090" gradientUnits="userSpaceOnUse" y2="1190" xlink:type="simple" xlink:actuate="onLoad" id="linearGradient21" xlink:show="other" spreadMethod="pad">
                <stop stop-opacity="1" stop-color="white" offset="0%"/>
                <stop stop-opacity="1" stop-color="rgb(195,209,213)" offset="100%"/>
            </linearGradient>
            <linearGradient x1="1170" x2="1170" y1="1090" gradientUnits="userSpaceOnUse" y2="1190" xlink:type="simple" xlink:actuate="onLoad" id="linearGradient22" xlink:show="other" spreadMethod="pad">
                <stop stop-opacity="1" stop-color="white" offset="0%"/>
                <stop stop-opacity="1" stop-color="rgb(195,209,213)" offset="100%"/>
            </linearGradient>
            <linearGradient x1="570" x2="570" y1="730" gradientUnits="userSpaceOnUse" y2="830" xlink:type="simple" xlink:actuate="onLoad" id="linearGradient23" xlink:show="other" spreadMethod="pad">
                <stop stop-opacity="1" stop-color="white" offset="0%"/>
                <stop stop-opacity="1" stop-color="rgb(195,209,213)" offset="100%"/>
            </linearGradient>
            <linearGradient x1="10" x2="10" y1="250" gradientUnits="userSpaceOnUse" y2="350" xlink:type="simple" xlink:actuate="onLoad" id="linearGradient24" xlink:show="other" spreadMethod="pad">
                <stop stop-opacity="1" stop-color="white" offset="0%"/>
                <stop stop-opacity="1" stop-color="rgb(195,209,213)" offset="100%"/>
            </linearGradient>
            <linearGradient x1="1690" x2="1690" y1="1110" gradientUnits="userSpaceOnUse" y2="1210" xlink:type="simple" xlink:actuate="onLoad" id="linearGradient25" xlink:show="other" spreadMethod="pad">
                <stop stop-opacity="1" stop-color="white" offset="0%"/>
                <stop stop-opacity="1" stop-color="rgb(195,209,213)" offset="100%"/>
            </linearGradient>
            <linearGradient x1="2890" x2="2890" y1="350" gradientUnits="userSpaceOnUse" y2="450" xlink:type="simple" xlink:actuate="onLoad" id="linearGradient26" xlink:show="other" spreadMethod="pad">
                <stop stop-opacity="1" stop-color="white" offset="0%"/>
                <stop stop-opacity="1" stop-color="rgb(195,209,213)" offset="100%"/>
            </linearGradient>
            <linearGradient x1="3090" x2="3090" y1="370" gradientUnits="userSpaceOnUse" y2="470" xlink:type="simple" xlink:actuate="onLoad" id="linearGradient27" xlink:show="other" spreadMethod="pad">
                <stop stop-opacity="1" stop-color="white" offset="0%"/>
                <stop stop-opacity="1" stop-color="rgb(195,209,213)" offset="100%"/>
            </linearGradient>
            <linearGradient x1="2730" x2="2730" y1="410" gradientUnits="userSpaceOnUse" y2="510" xlink:type="simple" xlink:actuate="onLoad" id="linearGradient28" xlink:show="other" spreadMethod="pad">
                <stop stop-opacity="1" stop-color="white" offset="0%"/>
                <stop stop-opacity="1" stop-color="rgb(195,209,213)" offset="100%"/>
            </linearGradient>
            <linearGradient x1="430" x2="430" y1="870" gradientUnits="userSpaceOnUse" y2="970" xlink:type="simple" xlink:actuate="onLoad" id="linearGradient29" xlink:show="other" spreadMethod="pad">
                <stop stop-opacity="1" stop-color="white" offset="0%"/>
                <stop stop-opacity="1" stop-color="rgb(195,209,213)" offset="100%"/>
            </linearGradient>
            <clipPath clipPathUnits="userSpaceOnUse" id="clipPath1">
                <path d="M1590 10 L1590 163 L1898 163 L1898 10 Z"/>
            </clipPath>
            <clipPath clipPathUnits="userSpaceOnUse" id="clipPath2">
                <path d="M1589 9 L1900 9 L1900 165 L1589 165 L1589 9 Z"/>
            </clipPath>
            <clipPath clipPathUnits="userSpaceOnUse" id="clipPath3">
                <path d="M1330 250 L1330 349 L1510 349 L1510 250 Z"/>
            </clipPath>
            <clipPath clipPathUnits="userSpaceOnUse" id="clipPath4">
                <path d="M1329 249 L1512 249 L1512 351 L1329 351 L1329 249 Z"/>
            </clipPath>
            <clipPath clipPathUnits="userSpaceOnUse" id="clipPath5">
                <path d="M2290 310 L2290 429 L2489 429 L2489 310 Z"/>
            </clipPath>
            <clipPath clipPathUnits="userSpaceOnUse" id="clipPath6">
                <path d="M2289 309 L2491 309 L2491 431 L2289 431 L2289 309 Z"/>
            </clipPath>
            <clipPath clipPathUnits="userSpaceOnUse" id="clipPath7">
                <path d="M2210 610 L2210 709 L2309 709 L2309 610 Z"/>
            </clipPath>
            <clipPath clipPathUnits="userSpaceOnUse" id="clipPath8">
                <path d="M2209 609 L2311 609 L2311 711 L2209 711 L2209 609 Z"/>
            </clipPath>
            <clipPath clipPathUnits="userSpaceOnUse" id="clipPath9">
                <path d="M2430 610 L2430 709 L2529 709 L2529 610 Z"/>
            </clipPath>
            <clipPath clipPathUnits="userSpaceOnUse" id="clipPath10">
                <path d="M2429 609 L2531 609 L2531 711 L2429 711 L2429 609 Z"/>
            </clipPath>
            <clipPath clipPathUnits="userSpaceOnUse" id="clipPath11">
                <path d="M890 550 L890 689 L1069 689 L1069 550 Z"/>
            </clipPath>
            <clipPath clipPathUnits="userSpaceOnUse" id="clipPath12">
                <path d="M889 549 L1071 549 L1071 691 L889 691 L889 549 Z"/>
            </clipPath>
            <clipPath clipPathUnits="userSpaceOnUse" id="clipPath13">
                <path d="M730 730 L730 829 L829 829 L829 730 Z"/>
            </clipPath>
            <clipPath clipPathUnits="userSpaceOnUse" id="clipPath14">
                <path d="M729 729 L831 729 L831 831 L729 831 L729 729 Z"/>
            </clipPath>
            <clipPath clipPathUnits="userSpaceOnUse" id="clipPath15">
                <path d="M1530 510 L1530 609 L1629 609 L1629 510 Z"/>
            </clipPath>
            <clipPath clipPathUnits="userSpaceOnUse" id="clipPath16">
                <path d="M1529 509 L1631 509 L1631 611 L1529 611 L1529 509 Z"/>
            </clipPath>
            <clipPath clipPathUnits="userSpaceOnUse" id="clipPath17">
                <path d="M890 770 L890 869 L989 869 L989 770 Z"/>
            </clipPath>
            <clipPath clipPathUnits="userSpaceOnUse" id="clipPath18">
                <path d="M889 769 L991 769 L991 871 L889 871 L889 769 Z"/>
            </clipPath>
            <clipPath clipPathUnits="userSpaceOnUse" id="clipPath19">
                <path d="M1050 910 L1050 1009 L1149 1009 L1149 910 Z"/>
            </clipPath>
            <clipPath clipPathUnits="userSpaceOnUse" id="clipPath20">
                <path d="M1049 909 L1151 909 L1151 1011 L1049 1011 L1049 909 Z"/>
            </clipPath>
            <clipPath clipPathUnits="userSpaceOnUse" id="clipPath21">
                <path d="M1170 890 L1170 989 L1269 989 L1269 890 Z"/>
            </clipPath>
            <clipPath clipPathUnits="userSpaceOnUse" id="clipPath22">
                <path d="M1169 889 L1271 889 L1271 991 L1169 991 L1169 889 Z"/>
            </clipPath>
            <clipPath clipPathUnits="userSpaceOnUse" id="clipPath23">
                <path d="M1870 610 L1870 709 L1969 709 L1969 610 Z"/>
            </clipPath>
            <clipPath clipPathUnits="userSpaceOnUse" id="clipPath24">
                <path d="M1869 609 L1971 609 L1971 711 L1869 711 L1869 609 Z"/>
            </clipPath>
            <clipPath clipPathUnits="userSpaceOnUse" id="clipPath25">
                <path d="M1370 870 L1370 969 L1469 969 L1469 870 Z"/>
            </clipPath>
            <clipPath clipPathUnits="userSpaceOnUse" id="clipPath26">
                <path d="M1369 869 L1471 869 L1471 971 L1369 971 L1369 869 Z"/>
            </clipPath>
            <clipPath clipPathUnits="userSpaceOnUse" id="clipPath27">
                <path d="M1530 870 L1530 969 L1629 969 L1629 870 Z"/>
            </clipPath>
            <clipPath clipPathUnits="userSpaceOnUse" id="clipPath28">
                <path d="M1529 869 L1631 869 L1631 971 L1529 971 L1529 869 Z"/>
            </clipPath>
            <clipPath clipPathUnits="userSpaceOnUse" id="clipPath29">
                <path d="M1690 870 L1690 969 L1789 969 L1789 870 Z"/>
            </clipPath>
            <clipPath clipPathUnits="userSpaceOnUse" id="clipPath30">
                <path d="M1689 869 L1791 869 L1791 971 L1689 971 L1689 869 Z"/>
            </clipPath>
            <clipPath clipPathUnits="userSpaceOnUse" id="clipPath31">
                <path d="M2050 590 L2050 689 L2149 689 L2149 590 Z"/>
            </clipPath>
            <clipPath clipPathUnits="userSpaceOnUse" id="clipPath32">
                <path d="M2049 589 L2151 589 L2151 691 L2049 691 L2049 589 Z"/>
            </clipPath>
            <clipPath clipPathUnits="userSpaceOnUse" id="clipPath33">
                <path d="M330 550 L330 649 L429 649 L429 550 Z"/>
            </clipPath>
            <clipPath clipPathUnits="userSpaceOnUse" id="clipPath34">
                <path d="M329 549 L431 549 L431 651 L329 651 L329 549 Z"/>
            </clipPath>
            <clipPath clipPathUnits="userSpaceOnUse" id="clipPath35">
                <path d="M150 730 L150 829 L289 829 L289 730 Z"/>
            </clipPath>
            <clipPath clipPathUnits="userSpaceOnUse" id="clipPath36">
                <path d="M149 729 L291 729 L291 831 L149 831 L149 729 Z"/>
            </clipPath>
            <clipPath clipPathUnits="userSpaceOnUse" id="clipPath37">
                <path d="M130 310 L130 409 L229 409 L229 310 Z"/>
            </clipPath>
            <clipPath clipPathUnits="userSpaceOnUse" id="clipPath38">
                <path d="M129 309 L231 309 L231 411 L129 411 L129 309 Z"/>
            </clipPath>
            <clipPath clipPathUnits="userSpaceOnUse" id="clipPath39">
                <path d="M850 970 L850 1069 L949 1069 L949 970 Z"/>
            </clipPath>
            <clipPath clipPathUnits="userSpaceOnUse" id="clipPath40">
                <path d="M849 969 L951 969 L951 1071 L849 1071 L849 969 Z"/>
            </clipPath>
            <clipPath clipPathUnits="userSpaceOnUse" id="clipPath41">
                <path d="M810 1090 L810 1189 L909 1189 L909 1090 Z"/>
            </clipPath>
            <clipPath clipPathUnits="userSpaceOnUse" id="clipPath42">
                <path d="M809 1089 L911 1089 L911 1191 L809 1191 L809 1089 Z"/>
            </clipPath>
            <clipPath clipPathUnits="userSpaceOnUse" id="clipPath43">
                <path d="M1170 1090 L1170 1189 L1269 1189 L1269 1090 Z"/>
            </clipPath>
            <clipPath clipPathUnits="userSpaceOnUse" id="clipPath44">
                <path d="M1169 1089 L1271 1089 L1271 1191 L1169 1191 L1169 1089 Z"/>
            </clipPath>
            <clipPath clipPathUnits="userSpaceOnUse" id="clipPath45">
                <path d="M570 730 L570 829 L669 829 L669 730 Z"/>
            </clipPath>
            <clipPath clipPathUnits="userSpaceOnUse" id="clipPath46">
                <path d="M569 729 L671 729 L671 831 L569 831 L569 729 Z"/>
            </clipPath>
            <clipPath clipPathUnits="userSpaceOnUse" id="clipPath47">
                <path d="M10 250 L10 349 L109 349 L109 250 Z"/>
            </clipPath>
            <clipPath clipPathUnits="userSpaceOnUse" id="clipPath48">
                <path d="M9 249 L111 249 L111 351 L9 351 L9 249 Z"/>
            </clipPath>
            <clipPath clipPathUnits="userSpaceOnUse" id="clipPath49">
                <path d="M1690 1110 L1690 1209 L1789 1209 L1789 1110 Z"/>
            </clipPath>
            <clipPath clipPathUnits="userSpaceOnUse" id="clipPath50">
                <path d="M1689 1109 L1791 1109 L1791 1211 L1689 1211 L1689 1109 Z"/>
            </clipPath>
            <clipPath clipPathUnits="userSpaceOnUse" id="clipPath51">
                <path d="M2890 350 L2890 449 L2989 449 L2989 350 Z"/>
            </clipPath>
            <clipPath clipPathUnits="userSpaceOnUse" id="clipPath52">
                <path d="M2889 349 L2991 349 L2991 451 L2889 451 L2889 349 Z"/>
            </clipPath>
            <clipPath clipPathUnits="userSpaceOnUse" id="clipPath53">
                <path d="M3090 370 L3090 469 L3189 469 L3189 370 Z"/>
            </clipPath>
            <clipPath clipPathUnits="userSpaceOnUse" id="clipPath54">
                <path d="M3089 369 L3191 369 L3191 471 L3089 471 L3089 369 Z"/>
            </clipPath>
            <clipPath clipPathUnits="userSpaceOnUse" id="clipPath55">
                <path d="M2730 410 L2730 509 L2829 509 L2829 410 Z"/>
            </clipPath>
            <clipPath clipPathUnits="userSpaceOnUse" id="clipPath56">
                <path d="M2729 409 L2831 409 L2831 511 L2729 511 L2729 409 Z"/>
            </clipPath>
            <clipPath clipPathUnits="userSpaceOnUse" id="clipPath57">
                <path d="M430 870 L430 969 L529 969 L529 870 Z"/>
            </clipPath>
            <clipPath clipPathUnits="userSpaceOnUse" id="clipPath58">
                <path d="M429 869 L531 869 L531 971 L429 971 L429 869 Z"/>
            </clipPath>
        </defs>
        <g fill="url(#linearGradient1)" stroke-miterlimit="0" stroke-width="0" font-family="'Segoe UI'" stroke="url(#linearGradient1)" stroke-linejoin="round">
            <rect x="1590" width="309" height="154" y="10" clip-path="url(#clipPath1)" stroke="none"/>
        </g>
        <g stroke-linecap="butt" font-family="'Segoe UI'" stroke-width="1.1">
            <rect x="1590" y="10" clip-path="url(#clipPath2)" fill="none" width="308" rx="0" ry="0" height="153"/>
            <rect x="1330" y="250" clip-path="url(#clipPath3)" fill="url(#linearGradient2)" width="181" height="100" stroke="none"/>
            <rect x="1330" y="250" clip-path="url(#clipPath4)" fill="none" width="180" rx="0" ry="0" height="99"/>
            <rect x="2290" y="310" clip-path="url(#clipPath5)" fill="url(#linearGradient3)" width="200" height="120" stroke="none"/>
            <rect x="2290" y="310" clip-path="url(#clipPath6)" fill="none" width="199" rx="0" ry="0" height="119"/>
            <rect x="2210" y="610" clip-path="url(#clipPath7)" fill="url(#linearGradient4)" width="100" height="100" stroke="none"/>
            <rect x="2210" y="610" clip-path="url(#clipPath8)" fill="none" width="99" rx="0" ry="0" height="99"/>
            <rect x="2430" y="610" clip-path="url(#clipPath9)" fill="url(#linearGradient5)" width="100" height="100" stroke="none"/>
            <rect x="2430" y="610" clip-path="url(#clipPath10)" fill="none" width="99" rx="0" ry="0" height="99"/>
            <rect x="890" y="550" clip-path="url(#clipPath11)" fill="url(#linearGradient6)" width="180" height="140" stroke="none"/>
            <rect x="890" y="550" clip-path="url(#clipPath12)" fill="none" width="179" rx="0" ry="0" height="139"/>
            <rect x="730" y="730" clip-path="url(#clipPath13)" fill="url(#linearGradient7)" width="100" height="100" stroke="none"/>
            <rect x="730" y="730" clip-path="url(#clipPath14)" fill="none" width="99" rx="0" ry="0" height="99"/>
            <rect x="1530" y="510" clip-path="url(#clipPath15)" fill="url(#linearGradient8)" width="100" height="100" stroke="none"/>
            <rect x="1530" y="510" clip-path="url(#clipPath16)" fill="none" width="99" rx="0" ry="0" height="99"/>
            <rect x="890" y="770" clip-path="url(#clipPath17)" fill="url(#linearGradient9)" width="100" height="100" stroke="none"/>
            <rect x="890" y="770" clip-path="url(#clipPath18)" fill="none" width="99" rx="0" ry="0" height="99"/>
            <rect x="1050" y="910" clip-path="url(#clipPath19)" fill="url(#linearGradient10)" width="100" height="100" stroke="none"/>
            <rect x="1050" y="910" clip-path="url(#clipPath20)" fill="none" width="99" rx="0" ry="0" height="99"/>
            <rect x="1170" y="890" clip-path="url(#clipPath21)" fill="url(#linearGradient11)" width="100" height="100" stroke="none"/>
            <rect x="1170" y="890" clip-path="url(#clipPath22)" fill="none" width="99" rx="0" ry="0" height="99"/>
            <rect x="1870" y="610" clip-path="url(#clipPath23)" fill="url(#linearGradient12)" width="100" height="100" stroke="none"/>
            <rect x="1870" y="610" clip-path="url(#clipPath24)" fill="none" width="99" rx="0" ry="0" height="99"/>
            <rect x="1370" y="870" clip-path="url(#clipPath25)" fill="url(#linearGradient13)" width="100" height="100" stroke="none"/>
            <rect x="1370" y="870" clip-path="url(#clipPath26)" fill="none" width="99" rx="0" ry="0" height="99"/>
            <rect x="1530" y="870" clip-path="url(#clipPath27)" fill="url(#linearGradient14)" width="100" height="100" stroke="none"/>
            <rect x="1530" y="870" clip-path="url(#clipPath28)" fill="none" width="99" rx="0" ry="0" height="99"/>
            <rect x="1690" y="870" clip-path="url(#clipPath29)" fill="url(#linearGradient15)" width="100" height="100" stroke="none"/>
            <rect x="1690" y="870" clip-path="url(#clipPath30)" fill="none" width="99" rx="0" ry="0" height="99"/>
            <rect x="2050" y="590" clip-path="url(#clipPath31)" fill="url(#linearGradient16)" width="100" height="100" stroke="none"/>
            <rect x="2050" y="590" clip-path="url(#clipPath32)" fill="none" width="99" rx="0" ry="0" height="99"/>
            <rect x="330" y="550" clip-path="url(#clipPath33)" fill="url(#linearGradient17)" width="100" height="100" stroke="none"/>
            <rect x="330" y="550" clip-path="url(#clipPath34)" fill="none" width="99" rx="0" ry="0" height="99"/>
            <rect x="150" y="730" clip-path="url(#clipPath35)" fill="url(#linearGradient18)" width="140" height="100" stroke="none"/>
            <rect x="150" y="730" clip-path="url(#clipPath36)" fill="none" width="139" rx="0" ry="0" height="99"/>
            <rect x="130" y="310" clip-path="url(#clipPath37)" fill="url(#linearGradient19)" width="100" height="100" stroke="none"/>
            <rect x="130" y="310" clip-path="url(#clipPath38)" fill="none" width="99" rx="0" ry="0" height="99"/>
            <rect x="850" y="970" clip-path="url(#clipPath39)" fill="url(#linearGradient20)" width="100" height="100" stroke="none"/>
            <rect x="850" y="970" clip-path="url(#clipPath40)" fill="none" width="99" rx="0" ry="0" height="99"/>
            <rect x="810" y="1090" clip-path="url(#clipPath41)" fill="url(#linearGradient21)" width="100" height="100" stroke="none"/>
            <rect x="810" y="1090" clip-path="url(#clipPath42)" fill="none" width="99" rx="0" ry="0" height="99"/>
            <rect x="1170" y="1090" clip-path="url(#clipPath43)" fill="url(#linearGradient22)" width="100" height="100" stroke="none"/>
            <rect x="1170" y="1090" clip-path="url(#clipPath44)" fill="none" width="99" rx="0" ry="0" height="99"/>
            <rect x="570" y="730" clip-path="url(#clipPath45)" fill="url(#linearGradient23)" width="100" height="100" stroke="none"/>
            <rect x="570" y="730" clip-path="url(#clipPath46)" fill="none" width="99" rx="0" ry="0" height="99"/>
            <rect x="10" y="250" clip-path="url(#clipPath47)" fill="url(#linearGradient24)" width="100" height="100" stroke="none"/>
            <rect x="10" y="250" clip-path="url(#clipPath48)" fill="none" width="99" rx="0" ry="0" height="99"/>
            <rect x="1690" y="1110" clip-path="url(#clipPath49)" fill="url(#linearGradient25)" width="100" height="100" stroke="none"/>
            <rect x="1690" y="1110" clip-path="url(#clipPath50)" fill="none" width="99" rx="0" ry="0" height="99"/>
            <rect x="2890" y="350" clip-path="url(#clipPath51)" fill="url(#linearGradient26)" width="100" height="100" stroke="none"/>
            <rect x="2890" y="350" clip-path="url(#clipPath52)" fill="none" width="99" rx="0" ry="0" height="99"/>
            <rect x="3090" y="370" clip-path="url(#clipPath53)" fill="url(#linearGradient27)" width="100" height="100" stroke="none"/>
            <rect x="3090" y="370" clip-path="url(#clipPath54)" fill="none" width="99" rx="0" ry="0" height="99"/>
            <rect x="2730" y="410" clip-path="url(#clipPath55)" fill="url(#linearGradient28)" width="100" height="100" stroke="none"/>
            <rect x="2730" y="410" clip-path="url(#clipPath56)" fill="none" width="99" rx="0" ry="0" height="99"/>
            <rect x="430" y="870" clip-path="url(#clipPath57)" fill="url(#linearGradient29)" width="100" height="100" stroke="none"/>
            <rect x="430" y="870" clip-path="url(#clipPath58)" fill="none" width="99" rx="0" ry="0" height="99"/>
        </g>
    </g>
    <rect x="1590" width="309" fill-opacity="0" height="154" y="10" stroke-opacity="0"/>
    <rect x="1330" width="181" fill-opacity="0" height="100" y="250" stroke-opacity="0"/>
    <rect x="2290" width="200" fill-opacity="0" height="120" y="310" stroke-opacity="0"/>
    <rect x="2210" width="100" fill-opacity="0" height="100" y="610" stroke-opacity="0"/>
    <rect x="2430" width="100" fill-opacity="0" height="100" y="610" stroke-opacity="0"/>
    <rect x="890" width="180" fill-opacity="0" height="140" y="550" stroke-opacity="0"/>
    <rect x="730" width="100" fill-opacity="0" height="100" y="730" stroke-opacity="0"/>
    <rect x="1530" width="100" fill-opacity="0" height="100" y="510" stroke-opacity="0"/>
    <rect x="890" width="100" fill-opacity="0" height="100" y="770" stroke-opacity="0"/>
    <rect x="1050" width="100" fill-opacity="0" height="100" y="910" stroke-opacity="0"/>
    <rect x="1170" width="100" fill-opacity="0" height="100" y="890" stroke-opacity="0"/>
    <rect x="1870" width="100" fill-opacity="0" height="100" y="610" stroke-opacity="0"/>
    <rect x="1370" width="100" fill-opacity="0" height="100" y="870" stroke-opacity="0"/>
    <rect x="1530" width="100" fill-opacity="0" height="100" y="870" stroke-opacity="0"/>
    <rect x="1690" width="100" fill-opacity="0" height="100" y="870" stroke-opacity="0"/>
    <rect x="2050" width="100" fill-opacity="0" height="100" y="590" stroke-opacity="0"/>
    <rect x="330" width="100" fill-opacity="0" height="100" y="550" stroke-opacity="0"/>
    <rect x="150" width="140" fill-opacity="0" height="100" y="730" stroke-opacity="0"/>
    <rect x="130" width="100" fill-opacity="0" height="100" y="310" stroke-opacity="0"/>
    <rect x="850" width="100" fill-opacity="0" height="100" y="970" stroke-opacity="0"/>
    <rect x="810" width="100" fill-opacity="0" height="100" y="1090" stroke-opacity="0"/>
    <rect x="1170" width="100" fill-opacity="0" height="100" y="1090" stroke-opacity="0"/>
    <rect x="570" width="100" fill-opacity="0" height="100" y="730" stroke-opacity="0"/>
    <rect x="10" width="100" fill-opacity="0" height="100" y="250" stroke-opacity="0"/>
    <rect x="1690" width="100" fill-opacity="0" height="100" y="1110" stroke-opacity="0"/>
    <rect x="2890" width="100" fill-opacity="0" height="100" y="350" stroke-opacity="0"/>
    <rect x="3090" width="100" fill-opacity="0" height="100" y="370" stroke-opacity="0"/>
    <rect x="2730" width="100" fill-opacity="0" height="100" y="410" stroke-opacity="0"/>
    <rect x="430" width="100" fill-opacity="0" height="100" y="870" stroke-opacity="0"/>
</svg>
